<?xml version="1.0" encoding="iso-8859-1"?>
<!-- Generator: Adobe Illustrator 19.0.0, SVG Export Plug-In . SVG Version: 6.00 Build 0)  -->
<svg version="1.1" id="Layer_1" xmlns="http://www.w3.org/2000/svg" xmlns:xlink="http://www.w3.org/1999/xlink" x="0px" y="0px"
	 viewBox="0 0 512 512" style="enable-background:new 0 0 512 512;" xml:space="preserve">
<g>
	<g>
		<path d="M330.049,150.922l-19.039-34.977c-6.714-12.335-10.263-26.279-10.263-40.323V45.314V10.199
			C300.747,4.566,296.181,0,290.548,0h-69.096c-5.633,0-10.199,4.566-10.199,10.199v35.115v30.307
			c0,14.044-3.548,27.988-10.263,40.323l-19.039,34.977c-12.695,23.324-19.405,49.687-19.405,76.243v274.637
			c0,5.633,4.566,10.199,10.199,10.199h166.51c5.633,0,10.199-4.566,10.199-10.199V227.165
			C349.454,200.609,342.744,174.245,330.049,150.922z M231.651,20.398h48.697v14.716h-48.697V20.398z M199.868,160.673
			l19.039-34.977c8.338-15.319,12.745-32.634,12.745-50.075V55.513h48.697v20.108c0,17.441,4.407,34.756,12.745,50.075
			l19.039,34.977c10.611,19.495,16.428,41.427,16.893,63.605H182.975C183.44,202.1,189.256,180.168,199.868,160.673z
			 M329.056,491.602H182.944v-84.945h146.112V491.602z M329.056,386.258H182.944V244.677h146.112V386.258z"/>
	</g>
</g>
<g>
	<g>
		<path d="M206.727,301.304c-5.633,0-10.199,4.566-10.199,10.199v54.371c0,5.633,4.566,10.199,10.199,10.199
			s10.199-4.566,10.199-10.199v-54.371C216.926,305.87,212.36,301.304,206.727,301.304z"/>
	</g>
</g>
<g>
	<g>
		<path d="M206.727,260.526c-5.633,0-10.199,4.566-10.199,10.199v5.664c0,5.633,4.566,10.199,10.199,10.199
			s10.199-4.566,10.199-10.199v-5.664C216.926,265.093,212.36,260.526,206.727,260.526z"/>
	</g>
</g>
<g>
</g>
<g>
</g>
<g>
</g>
<g>
</g>
<g>
</g>
<g>
</g>
<g>
</g>
<g>
</g>
<g>
</g>
<g>
</g>
<g>
</g>
<g>
</g>
<g>
</g>
<g>
</g>
<g>
</g>
</svg>
